<?xml version="1.0" encoding="UTF-8" standalone="no"?>
<svg
   xmlns:dc="http://purl.org/dc/elements/1.1/"
   xmlns:cc="http://creativecommons.org/ns#"
   xmlns:rdf="http://www.w3.org/1999/02/22-rdf-syntax-ns#"
   xmlns:svg="http://www.w3.org/2000/svg"
   xmlns="http://www.w3.org/2000/svg"
   xmlns:sodipodi="http://sodipodi.sourceforge.net/DTD/sodipodi-0.dtd"
   xmlns:inkscape="http://www.inkscape.org/namespaces/inkscape"
   enable-background="new 0 0 24 24"
   height="24"
   viewBox="0 0 24 24"
   width="24"
   version="1.1"
   id="svg14"
   sodipodi:docname="verified-24px.svg"
   inkscape:version="0.92.5 (2060ec1f9f, 2020-04-08)">
  <metadata
     id="metadata20">
    <rdf:RDF>
      <cc:Work
         rdf:about="">
        <dc:format>image/svg+xml</dc:format>
        <dc:type
           rdf:resource="http://purl.org/dc/dcmitype/StillImage" />
      </cc:Work>
    </rdf:RDF>
  </metadata>
  <defs
     id="defs18" />
  <sodipodi:namedview
     pagecolor="#ffffff"
     bordercolor="#666666"
     borderopacity="1"
     objecttolerance="10"
     gridtolerance="10"
     guidetolerance="10"
     inkscape:pageopacity="0"
     inkscape:pageshadow="2"
     inkscape:window-width="1920"
     inkscape:window-height="1043"
     id="namedview16"
     showgrid="false"
     inkscape:zoom="9.8333333"
     inkscape:cx="12"
     inkscape:cy="12"
     inkscape:window-x="1920"
     inkscape:window-y="0"
     inkscape:window-maximized="1"
     inkscape:current-layer="g12" />
  <g
     id="g4">
    <rect
       fill="none"
       height="24"
       width="24"
       id="rect2" />
  </g>
  <g
     id="g12">
    <g
       id="g10"
       style="fill:#f59297;fill-opacity:1">
      <path
         d="M23,11.99l-2.44-2.79l0.34-3.69l-3.61-0.82L15.4,1.5L12,2.96L8.6,1.5L6.71,4.69L3.1,5.5L3.44,9.2L1,11.99l2.44,2.79 l-0.34,3.7l3.61,0.82L8.6,22.5l3.4-1.47l3.4,1.46l1.89-3.19l3.61-0.82l-0.34-3.69L23,11.99z M19.05,13.47l-0.56,0.65l0.08,0.85 l0.18,1.95l-1.9,0.43l-0.84,0.19l-0.44,0.74l-0.99,1.68l-1.78-0.77L12,18.85l-0.79,0.34l-1.78,0.77l-0.99-1.67l-0.44-0.74 l-0.84-0.19l-1.9-0.43l0.18-1.96l0.08-0.85l-0.56-0.65l-1.29-1.47l1.29-1.48l0.56-0.65L5.43,9.01L5.25,7.07l1.9-0.43l0.84-0.19 l0.44-0.74l0.99-1.68l1.78,0.77L12,5.14l0.79-0.34l1.78-0.77l0.99,1.68l0.44,0.74l0.84,0.19l1.9,0.43l-0.18,1.95l-0.08,0.85 l0.56,0.65l1.29,1.47L19.05,13.47z"
         id="path6"
         style="fill:#f59297;fill-opacity:1" />
      <polygon
         points="10.09,13.75 7.77,11.42 6.29,12.91 10.09,16.72 17.43,9.36 15.95,7.87"
         id="polygon8"
         style="fill:#f59297;fill-opacity:1" />
    </g>
  </g>
</svg>
